<?xml version="1.0" encoding="UTF-8" standalone="no"?>
<!-- Created with Inkscape (http://www.inkscape.org/) -->

<svg
   xmlns:dc="http://purl.org/dc/elements/1.1/"
   xmlns:cc="http://creativecommons.org/ns#"
   xmlns:rdf="http://www.w3.org/1999/02/22-rdf-syntax-ns#"
   xmlns:svg="http://www.w3.org/2000/svg"
   xmlns="http://www.w3.org/2000/svg"
   xmlns:sodipodi="http://sodipodi.sourceforge.net/DTD/sodipodi-0.dtd"
   xmlns:inkscape="http://www.inkscape.org/namespaces/inkscape"
   width="1212"
   height="275"
   viewBox="0 0 1211.9999 275"
   id="svg3352"
   version="1.1"
   inkscape:version="0.91 r13725"
   sodipodi:docname="Logo.svg"
   inkscape:export-filename="C:\Users\f.gineste\Downloads\logo-monoeci\Monoeci\XMCClogo_white.png"
   inkscape:export-xdpi="90"
   inkscape:export-ydpi="90">
  <defs
     id="defs3354" />
  <sodipodi:namedview
     id="base"
     pagecolor="#ffffff"
     bordercolor="#666666"
     borderopacity="1.0"
     inkscape:pageopacity="0.0"
     inkscape:pageshadow="2"
     inkscape:zoom="0.49497475"
     inkscape:cx="1037.1319"
     inkscape:cy="9.6519138"
     inkscape:document-units="px"
     inkscape:current-layer="layer1"
     showgrid="false"
     units="px"
     inkscape:window-width="1006"
     inkscape:window-height="591"
     inkscape:window-x="37"
     inkscape:window-y="460"
     inkscape:window-maximized="0"
     inkscape:showpageshadow="false" />
  <metadata
     id="metadata3357">
    <rdf:RDF>
      <cc:Work
         rdf:about="">
        <dc:format>image/svg+xml</dc:format>
        <dc:type
           rdf:resource="http://purl.org/dc/dcmitype/StillImage" />
        <dc:title></dc:title>
      </cc:Work>
    </rdf:RDF>
  </metadata>
  <g
     inkscape:label="Calque 1"
     inkscape:groupmode="layer"
     id="layer1"
     transform="translate(0,-777.36216)">
    <path
       d="m 504.64596,895.28794 0,66.48652 16.0888,0 0,-92.70919 -17.2758,0 -28.09178,43.83929 -28.0914,-43.83929 -17.27581,0 0,92.70919 16.0888,0 0,-66.21886 28.88035,43.43966 0.52957,0 29.14727,-43.70732 z m 154.8548,20.00022 c 0,-6.53372 -1.1909,-12.71383 -3.56416,-18.54055 -2.37352,-5.83074 -5.67113,-10.90445 -9.88848,-15.23298 -4.22109,-4.32437 -9.27754,-7.74818 -15.1687,-10.26388 -5.89141,-2.51559 -12.39739,-3.77318 -19.51781,-3.77318 -7.12079,0 -13.63029,1.27723 -19.51793,3.83927 -5.89116,2.56204 -10.99374,6.02475 -15.30022,10.39583 -4.30999,4.37107 -7.65024,9.47186 -10.0235,15.2987 -2.37364,5.82709 -3.56053,12.00708 -3.56053,18.54049 0,6.5334 1.18689,12.7135 3.56053,18.5441 2.37326,5.8271 5.67076,10.9044 9.89198,15.2291 4.22123,4.3246 9.27366,7.7485 15.16519,10.2638 5.89116,2.5156 12.39714,3.7733 19.52145,3.7733 7.12079,0 13.62677,-1.2773 19.51793,-3.8393 5.89116,-2.5621 10.99011,-6.0249 15.29621,-10.3958 4.31049,-4.3711 7.65036,-9.472 10.02388,-15.2987 2.37326,-5.8268 3.56416,-12.0069 3.56416,-18.5402 z m -17.01667,0.2637 c 0,4.5032 -0.7694,8.7657 -2.30782,12.7795 -1.53855,4.018 -3.6686,7.5075 -6.39365,10.4658 -2.72542,2.9581 -6.00349,5.295 -9.82666,7.0188 -3.82318,1.7193 -8.02134,2.5812 -12.59435,2.5812 -4.57302,0 -8.79425,-0.8811 -12.66017,-2.6474 -3.86931,-1.7664 -7.19,-4.1497 -9.95805,-7.1507 -2.77169,-3.0045 -4.92456,-6.5136 -6.46336,-10.5315 -1.53842,-4.018 -2.30782,-8.2763 -2.30782,-12.7794 0,-4.50345 0.7694,-8.76212 2.30782,-12.7798 1.5388,-4.01781 3.67248,-7.50772 6.39791,-10.46583 2.72506,-2.95824 5.99923,-5.29505 9.82241,-7.01835 3.82706,-1.7199 8.02521,-2.58168 12.59823,-2.58168 4.56913,0 8.79073,0.88117 12.66017,2.64765 3.86968,1.76624 7.18611,4.14975 9.95806,7.15432 2.76768,3.00066 4.92091,6.50984 6.45946,10.52789 1.53842,4.01781 2.30783,8.27646 2.30783,12.7795 z m 123.59692,17.6166 -49.34898,-64.10319 -15.01062,0 0,92.70919 16.0888,0 0,-65.95472 50.79889,65.95472 13.56071,0 0,-92.70919 -16.0888,0 0,64.10319 z m 154.85091,-17.8803 c 0,-6.53372 -1.19065,-12.71383 -3.56416,-18.54055 -2.37364,-5.83074 -5.67088,-10.90445 -9.88848,-15.23298 -4.22122,-4.32437 -9.27754,-7.74818 -15.1687,-10.26388 -5.89154,-2.51559 -12.39714,-3.77318 -19.51793,-3.77318 -7.12043,0 -13.63029,1.27723 -19.51757,3.83927 -5.89141,2.56204 -10.99399,6.02475 -15.30047,10.39583 -4.31011,4.37107 -7.64998,9.47186 -10.02362,15.2987 -2.37352,5.82709 -3.56015,12.00708 -3.56015,18.54049 0,6.5334 1.18663,12.7135 3.56015,18.5441 2.37364,5.8271 5.67089,10.9044 9.89211,15.2291 4.22148,4.3246 9.27403,7.7485 15.16519,10.2638 5.89104,2.5156 12.39702,3.7733 19.5217,3.7733 7.12042,0 13.6264,-1.2773 19.51756,-3.8393 5.89155,-2.5621 10.99012,-6.0249 15.29671,-10.3958 4.30999,-4.3711 7.64986,-9.472 10.0235,-15.2987 2.37351,-5.8268 3.56416,-12.0069 3.56416,-18.5402 z m -17.01679,0.2637 c 0,4.5032 -0.76902,8.7657 -2.30782,12.7795 -1.53843,4.018 -3.66822,7.5075 -6.39365,10.4658 -2.72543,2.9581 -6.00349,5.295 -9.82667,7.0188 -3.82317,1.7193 -8.02133,2.5812 -12.59434,2.5812 -4.57302,0 -8.79425,-0.8811 -12.66005,-2.6474 -3.86944,-1.7664 -7.19012,-4.1497 -9.9578,-7.1507 -2.77157,-3.0045 -4.92494,-6.5136 -6.46335,-10.5315 -1.5388,-4.018 -2.30782,-8.2763 -2.30782,-12.7794 0,-4.50345 0.76902,-8.76212 2.30782,-12.7798 1.53841,-4.01781 3.67222,-7.50772 6.39765,-10.46583 2.72531,-2.95824 5.99949,-5.29505 9.82266,-7.01835 3.82681,-1.7199 8.02484,-2.58168 12.59823,-2.58168 4.56913,0 8.79036,0.88117 12.6598,2.64765 3.86968,1.76624 7.18649,4.14975 9.95818,7.15432 2.76768,3.00066 4.92091,6.50984 6.45934,10.52789 1.5388,4.01781 2.30782,8.27646 2.30782,12.7795 z m 127.55157,-46.48659 -68.31412,0 0,92.70919 68.97522,0 0,-14.701 -52.88604,0 0,-24.7668 46.29114,0 0,-14.70142 -46.29114,0 0,-23.83916 52.22494,0 0,-14.70081 z m 122.936,77.87619 -10.418,-10.5939 c -3.9582,3.7072 -7.9596,6.6422 -12.0026,8.8044 -4.0436,2.166 -8.8797,3.2452 -14.5082,3.2452 -4.3953,0 -8.462,-0.8619 -12.1999,-2.5812 -3.7343,-1.7238 -6.9661,-4.0839 -9.6911,-7.0849 -2.7255,-3.0045 -4.8361,-6.5137 -6.3323,-10.5318 -1.4957,-4.0177 -2.2421,-8.3188 -2.2421,-12.9111 0,-4.59272 0.7463,-8.87456 2.2421,-12.8459 1.4962,-3.97525 3.6068,-7.44162 6.3323,-10.39973 2.725,-2.95824 5.9568,-5.29505 9.6911,-7.01835 3.7379,-1.7199 7.8046,-2.58168 12.1999,-2.58168 5.2768,0 9.9813,1.05995 14.1136,3.17945 4.1324,2.1195 8.0444,4.89884 11.7361,8.34229 l 10.418,-12.05353 c -2.1955,-2.1156 -4.5265,-4.06049 -6.9889,-5.82671 -2.4624,-1.76661 -5.1452,-3.28836 -8.0448,-4.56912 -2.903,-1.28114 -6.0883,-2.27121 -9.5636,-2.9775 -3.4714,-0.70654 -7.3176,-1.05981 -11.5389,-1.05981 -7.0315,0 -13.4526,1.25759 -19.2549,3.77318 -5.8022,2.5157 -10.816,5.95878 -15.0336,10.32985 -4.2213,4.37108 -7.4954,9.47186 -9.8263,15.29908 -2.3313,5.82671 -3.4949,12.04926 -3.4949,18.67218 0,6.7121 1.187,12.9814 3.5606,18.8083 2.3732,5.8267 5.6478,10.8812 9.8263,15.1629 4.175,4.2819 9.1229,7.659 14.8364,10.1318 5.7135,2.4728 11.9565,3.7073 18.7294,3.7073 4.3061,0 8.2416,-0.3726 11.8017,-1.1255 3.5603,-0.7496 6.8344,-1.852 9.8267,-3.3116 2.9881,-1.4558 5.7788,-3.1755 8.3728,-5.1629 2.5939,-1.9875 5.0795,-4.2626 7.4531,-6.8207 z m 40.5045,-77.87619 0,92.70919 16.0928,0 0,-92.70919 -16.0928,0 z"
       style="fill:#ffffff;fill-opacity:1;fill-rule:nonzero;stroke:none;stroke-width:2.5;stroke-linejoin:bevel;stroke-miterlimit:4;stroke-dasharray:none;stroke-dashoffset:0;stroke-opacity:1"
       id="path12"
       inkscape:connector-curvature="0" />
    <path
       d="m 130.13773,906.80835 -46.890471,-81.55588 12.40504,-21.57965 46.739641,0 23.52264,40.90786 -35.77685,62.22767 z m 167.37944,-103.13553 -2.87964,-5.00774 -12.13449,-21.10654 -30.57737,-0.0114 -16.69572,0 -30.77458,0 -15.02203,26.12561 -8.13353,14.14156 -8.1294,-14.14156 -15.0219,-26.12561 -30.77846,0 -16.69585,0 -30.581261,0.0114 -12.1306,21.10654 -2.88002,5.00774 -12.64838,21.99864 -22.71839,39.51455 L -3.0517578e-5,916.87408 20.236779,952.07937 l 22.71853,39.51076 2.8029,4.87178 16.41752,28.55559 15.3851,26.7662 16.62226,-28.909 8.141431,-14.1651 27.80931,-48.37306 35.78075,62.22766 0.38277,0.6678 15.00246,26.0981 15.00661,-26.0981 0.38275,-0.6678 35.77661,-62.22766 37.62069,65.43786 15.28492,26.5878 15.38936,-26.7662 16.41364,-28.55169 2.80254,-4.87568 22.71851,-39.51077 20.23681,-35.20528 -30.04793,-52.26657 -22.71839,-39.51064 -12.64876,-22.00255 z m -77.30924,0 46.73976,0 12.40491,21.57965 -46.88682,81.55588 -35.77661,-62.22767 23.51876,-40.90786 z m 27.64332,129.90146 46.89046,-81.55601 12.62131,21.95269 24.99925,43.48162 -15.18789,26.41655 -31.70243,55.13946 -37.6207,-65.43431 z m -179.993341,-81.55991 46.890701,81.55991 -37.288321,64.8597 -31.70208,-55.1431 -15.18826,-26.4168 15.18826,-26.41644 22.0997,-38.44327 z m 113.441901,143.78367 -35.77661,-62.22376 35.77661,-62.2278 15.9267,27.70198 19.85016,34.52582 -35.77686,62.22376 z"
       style="fill:#e5063e;fill-opacity:1;fill-rule:evenodd;stroke:none"
       id="path14"
       inkscape:connector-curvature="0" />
  </g>
</svg>
